HIERARCHY
ROOT Hips
{
	OFFSET 0.000000 0.000000 0.000000
	CHANNELS 6 Xposition Yposition Zposition Zrotation Yrotation Xrotation 
	JOINT LHipJoint
	{
		OFFSET 0.000000 0.000000 0.000000
		CHANNELS 3 Zrotation Yrotation Xrotation
		JOINT LeftUpLeg
		{
			OFFSET 1.363060 -1.794630 0.839290
			CHANNELS 3 Zrotation Yrotation Xrotation
			JOINT LeftLeg
			{
				OFFSET 2.448110 -6.726130 0.000000
				CHANNELS 3 Zrotation Yrotation Xrotation
				JOINT LeftFoot
				{
					OFFSET 2.562200 -7.039590 0.000000
					CHANNELS 3 Zrotation Yrotation Xrotation
					JOINT LeftToeBase
					{
						OFFSET 0.157640 -0.433110 2.322550
						CHANNELS 3 Zrotation Yrotation Xrotation
						End Site
						{
							OFFSET 0.000000 0.000000 0.000000
						}
					}
				}
			}
		}
	}
	JOINT RHipJoint
	{
		OFFSET 0.000000 0.000000 0.000000
		CHANNELS 3 Zrotation Yrotation Xrotation
		JOINT RightUpLeg
		{
			OFFSET -1.305520 -1.794630 0.839290
			CHANNELS 3 Zrotation Yrotation Xrotation
			JOINT RightLeg
			{
				OFFSET -2.542530 -6.985550 0.000000
				CHANNELS 3 Zrotation Yrotation Xrotation
				JOINT RightFoot
				{
					OFFSET -2.568260 -7.056230 0.000000
					CHANNELS 3 Zrotation Yrotation Xrotation
					JOINT RightToeBase
					{
						OFFSET -0.164730 -0.452590 2.363150
						CHANNELS 3 Zrotation Yrotation Xrotation
						End Site
						{
							OFFSET 0.000000 0.000000 0.000000
						}
					}
				}
			}
		}
	}
	JOINT LowerBack
	{
		OFFSET 0.000000 0.000000 0.000000
		CHANNELS 3 Zrotation Yrotation Xrotation
		JOINT Spine
		{
			OFFSET 0.028270 2.035590 -0.193380
			CHANNELS 3 Zrotation Yrotation Xrotation
			JOINT Spine1
			{
				OFFSET 0.056720 2.048850 -0.042750
				CHANNELS 3 Zrotation Yrotation Xrotation
				JOINT Neck
				{
					OFFSET 0.000000 0.000000 0.000000
					CHANNELS 3 Zrotation Yrotation Xrotation
					JOINT Neck1
					{
						OFFSET -0.054170 1.746240 0.172020
						CHANNELS 3 Zrotation Yrotation Xrotation
						JOINT Head
						{
							OFFSET 0.104070 1.761360 -0.123970
							CHANNELS 3 Zrotation Yrotation Xrotation
							End Site
							{
								OFFSET 0.000000 0.000000 0.000000
							}
						}
					}
				}
				JOINT LeftShoulder
				{
					OFFSET 0.000000 0.000000 0.000000
					CHANNELS 3 Zrotation Yrotation Xrotation
					JOINT LeftArm
					{
						OFFSET 3.362410 1.200890 -0.311210
						CHANNELS 3 Zrotation Yrotation Xrotation
						JOINT LeftForeArm
						{
							OFFSET 4.983000 -0.000000 -0.000000
							CHANNELS 3 Zrotation Yrotation Xrotation
							JOINT LeftHand
							{
								OFFSET 3.483560 -0.000000 -0.000000
								CHANNELS 3 Zrotation Yrotation Xrotation
								JOINT LeftFingerBase
								{
									OFFSET 0.000000 0.000000 0.000000
									CHANNELS 3 Zrotation Yrotation Xrotation
									JOINT LeftHandIndex1
									{
										OFFSET 0.715260 -0.000000 -0.000000
										CHANNELS 3 Zrotation Yrotation Xrotation
										End Site
										{
											OFFSET 0.000000 0.000000 0.000000
										}
									}
								}
								JOINT LThumb
								{
									OFFSET 0.000000 0.000000 0.000000
									CHANNELS 3 Zrotation Yrotation Xrotation
									End Site
									{
										OFFSET 0.000000 0.000000 0.000000
									}
								}
							}
						}
					}
				}
				JOINT RightShoulder
				{
					OFFSET 0.000000 0.000000 0.000000
					CHANNELS 3 Zrotation Yrotation Xrotation
					JOINT RightArm
					{
						OFFSET -3.136600 1.374050 -0.404650
						CHANNELS 3 Zrotation Yrotation Xrotation
						JOINT RightForeArm
						{
							OFFSET -5.241900 -0.000000 -0.000000
							CHANNELS 3 Zrotation Yrotation Xrotation
							JOINT RightHand
							{
								OFFSET -3.444170 -0.000000 -0.000000
								CHANNELS 3 Zrotation Yrotation Xrotation
								JOINT RightFingerBase
								{
									OFFSET 0.000000 0.000000 0.000000
									CHANNELS 3 Zrotation Yrotation Xrotation
									JOINT RightHandIndex1
									{
										OFFSET -0.622530 -0.000000 -0.000000
										CHANNELS 3 Zrotation Yrotation Xrotation
										End Site
										{
											OFFSET 0.000000 0.000000 0.000000
										}
									}
								}
								JOINT RThumb
								{
									OFFSET 0.000000 0.000000 0.000000
									CHANNELS 3 Zrotation Yrotation Xrotation
									End Site
									{
										OFFSET 0.000000 0.000000 0.000000
									}
								}
							}
						}
					}
				}
			}
		}
	}
}
MOTION
Frames: 6
Frame Time: 0.008333
-13.946697 14.963168 -24.184685 153.067428 44.115079 174.774542 -16.327173 15.056488 9.101576 -18.906794 0.725467 -43.533087 21.023444 18.942188 64.788715 -21.253196 -14.537222 -3.510441 22.586810 -32.353315 -33.995847 -17.749391 -17.318150 1.359791 54.850731 2.256578 -31.618446 5.221531 -14.647761 26.420580 -7.199887 14.547147 -8.507817 12.596719 -28.707901 39.950902 16.989105 2.791674 3.077041 -4.744821 -4.393871 -3.761311 -7.731954 -1.415196 14.177172 -12.494964 -2.481710 -17.655005 -11.197534 -0.074132 17.307107 40.388013 -24.634934 -5.863330 -0.389722 10.057901 11.727798 -81.886078 -43.153928 0.403449 15.915200 -61.459170 30.221238 -7.324315 -41.819122 9.075027 0.000001 -0.000001 -0.000001 -0.000000 -0.000000 -0.000000 -0.000000 -0.000000 0.000000 -20.574658 2.086902 -0.656929 72.397207 8.772833 24.341458 4.462640 47.433547 24.390414 -27.701346 38.375705 -4.475677 0.000002 0.000001 -0.000002 0.000000 -0.000000 -0.000000 0.000000 0.000000 0.000000 
-13.898288 15.003529 -24.357357 152.944115 45.585801 174.413604 -17.168068 13.704752 8.639438 -16.333715 3.338642 -44.152417 22.396349 21.547913 66.427340 -31.112896 -13.355228 3.948551 14.439303 -17.732164 -33.236396 -17.170258 -16.597177 0.495347 54.462233 1.620567 -30.066941 5.414567 -12.732164 26.614436 -8.897154 14.069356 -10.498352 11.671554 -25.509316 40.041380 17.411027 2.951935 4.112158 -4.780072 -3.927681 -4.035738 -7.407412 -1.310648 13.723948 -12.774410 -2.513850 -17.645830 -11.229913 -0.067679 17.173646 40.263027 -24.612788 -5.765670 -0.546816 9.598393 11.612303 -81.700313 -43.469020 0.577914 17.061527 -62.039196 30.223392 -5.652909 -42.028392 8.439599 0.000001 -0.000001 -0.000001 -0.000000 -0.000000 -0.000000 0.000000 -0.000000 0.000000 -20.805830 1.896967 -0.703519 71.945819 7.972426 24.829600 4.197631 47.562003 23.993043 -28.744767 38.013086 -4.814761 0.000002 0.000001 -0.000002 -0.000000 -0.000000 -0.000000 0.000000 0.000000 0.000000 
-13.859550 15.040991 -24.545946 153.181243 46.951743 174.521885 -18.510215 12.446368 8.147101 -13.698331 6.486686 -45.359586 24.951186 23.332323 68.320014 -35.824027 -12.458709 11.407587 -2.582359 25.670726 -15.604832 -16.835560 -15.596347 0.024262 53.987970 1.895979 -28.815060 5.602260 -12.131233 26.298129 -9.185876 13.857456 -12.088842 11.822818 -26.379152 40.642017 18.196640 3.175543 4.847698 -4.792889 -3.447362 -4.266558 -7.324935 -1.118692 13.278279 -12.911786 -2.497996 -17.557361 -11.161504 -0.072979 17.067119 40.043624 -24.305103 -6.140396 -0.414421 8.832828 11.115171 -81.637737 -43.316096 0.780854 18.373659 -62.544458 29.163458 -4.203952 -41.239124 7.693674 0.000001 -0.000001 -0.000001 -0.000000 0.000000 -0.000000 -0.000000 0.000000 0.000000 -20.926244 1.296073 -0.163437 71.389748 7.705324 24.812854 4.638619 47.709090 24.522206 -25.239580 38.226700 -3.563051 0.000002 0.000001 -0.000002 -0.000000 0.000000 -0.000000 0.000000 0.000000 0.000000 
-13.828153 14.999339 -24.725526 153.314544 48.407844 174.334775 -18.523674 11.332257 8.014707 -11.158176 7.788803 -45.543718 21.131883 24.390695 69.819901 -35.285054 -10.486686 12.432379 -5.883482 -5.738146 10.301176 -17.583031 -15.026612 -0.118796 54.550890 2.919636 -27.895665 5.030711 -12.804779 27.341489 -10.269362 14.032118 -13.401146 11.926976 -26.549087 40.219179 18.095819 3.438289 5.172812 -4.452033 -3.380437 -4.314257 -6.815060 -1.101152 13.079212 -13.010954 -2.540100 -17.445013 -10.568511 -0.227464 16.899452 39.269616 -23.831479 -6.842190 -0.008810 8.951205 11.000597 -82.098089 -42.938004 1.415068 18.777460 -62.734434 28.245405 -4.880119 -40.843971 7.880109 0.000001 -0.000001 -0.000001 0.000000 0.000000 -0.000000 0.000000 0.000000 -0.000000 -21.587063 1.190034 0.064012 71.181806 7.812223 24.577745 4.633734 48.277147 24.900575 -20.351336 38.396515 -1.814208 0.000002 0.000001 -0.000002 0.000000 0.000000 -0.000000 -0.000000 0.000000 -0.000000 
-13.791336 14.981997 -24.905255 153.541798 50.145569 174.269621 -19.675454 9.748764 8.128972 -7.116071 10.070135 -46.214620 16.902256 25.960857 70.977087 -36.429129 -7.671444 14.123877 -3.438253 -34.249218 27.240426 -17.698298 -14.127605 -0.433928 54.375882 4.203387 -27.019507 4.913620 -13.284217 28.352812 -11.514073 13.547954 -14.685760 11.849991 -25.951127 39.675058 18.329594 3.679785 5.555980 -4.333290 -3.061631 -4.375175 -6.610763 -1.063228 12.711524 -12.921100 -2.595084 -17.170930 -10.174500 -0.351379 16.817715 38.444351 -23.415579 -7.081644 0.303625 9.000824 10.970547 -82.107618 -42.519305 1.207499 18.078350 -63.120092 28.401127 -8.392162 -41.508353 9.442801 0.000001 -0.000001 -0.000001 -0.000000 -0.000000 -0.000000 -0.000000 -0.000000 -0.000000 -21.781241 1.402990 0.161199 70.934450 7.633931 24.520670 4.176515 48.768566 24.510514 -17.979783 37.629979 -0.939057 0.000002 0.000001 -0.000002 -0.000000 0.000000 0.000000 0.000000 -0.000000 0.000000 
-13.749745 15.008739 -25.087838 153.933158 52.192536 174.262500 -23.210205 8.136692 8.663543 -1.098015 14.316010 -48.158048 14.284784 27.250657 72.110085 -35.354393 -6.704489 18.102665 -5.597363 -20.747651 29.062142 -16.720698 -13.038842 -1.037465 53.304719 4.931748 -26.227091 4.877270 -13.532836 29.462862 -12.322074 13.384159 -15.606646 11.846828 -25.449126 38.520875 19.163018 3.789823 6.187692 -4.540878 -2.669359 -4.477720 -7.037008 -0.795228 12.304764 -12.478114 -2.545831 -16.923054 -10.066614 -0.393801 16.914895 38.579631 -22.908062 -7.754594 0.457507 9.032013 10.946858 -81.442537 -42.187000 0.900640 17.818253 -63.454155 28.154821 -10.958532 -41.716525 10.539324 0.000001 -0.000001 -0.000001 -0.000000 0.000000 0.000000 0.000000 0.000000 -0.000000 -21.140006 1.993812 -0.065637 70.605630 7.163623 24.445830 3.335812 49.090135 23.868140 -24.209410 37.411496 -3.149601 0.000002 0.000001 -0.000002 0.000000 0.000000 0.000000 0.000000 -0.000000 0.000000 
